<?xml version="1.0" standalone="no"?>
<!DOCTYPE svg PUBLIC "-//W3C//DTD SVG 20010904//EN"
 "http://www.w3.org/TR/2001/REC-SVG-20010904/DTD/svg10.dtd">
<svg version="1.0" xmlns="http://www.w3.org/2000/svg"
 width="248.000000pt" height="300.000000pt" viewBox="0 0 248.000000 300.000000"
 preserveAspectRatio="xMidYMid meet">
<metadata>
Created by potrace 1.10, written by Peter Selinger 2001-2011
</metadata>
<g transform="translate(0.000000,300.000000) scale(0.100000,-0.100000)"
fill="#999999" stroke="none">
<path d="M1242 2278 l-122 -103 -2 -60 c-1 -33 -2 -76 -4 -95 -1 -19 -2 -63
-3 -97 l-1 -62 -116 75 c-64 42 -123 78 -130 81 -20 8 -176 -236 -168 -262 4
-11 30 -61 60 -112 34 -61 51 -99 47 -112 -8 -32 -17 -25 -36 30 -10 28 -21
48 -24 45 -3 -2 5 -35 18 -71 24 -65 24 -67 5 -81 -11 -7 -16 -17 -13 -21 12
-11 33 18 57 82 13 33 27 65 32 72 5 7 -2 34 -21 72 -16 34 -25 61 -20 61 20
0 154 -32 160 -39 4 -3 9 -21 12 -38 6 -30 4 -33 -17 -33 -54 0 -58 -61 -5
-68 36 -6 52 -22 38 -38 -15 -19 -38 -18 -61 3 -10 9 -18 11 -18 6 0 -21 30
-36 64 -30 l34 5 6 -49 c4 -27 9 -57 12 -67 3 -9 -15 6 -40 33 -25 28 -51 49
-58 48 -8 -2 -26 25 -43 64 -16 37 -30 62 -32 56 -2 -6 10 -39 27 -73 21 -42
28 -66 22 -72 -7 -7 -19 7 -37 42 -14 28 -29 50 -32 47 -3 -3 9 -30 25 -59 28
-48 29 -55 15 -73 -8 -11 -21 -28 -28 -39 -13 -17 -18 -15 -88 42 -115 93
-101 90 -195 47 -45 -21 -82 -41 -82 -45 0 -16 100 -259 115 -279 5 -8 78 -47
160 -87 134 -64 152 -76 167 -108 12 -25 24 -36 39 -36 24 0 101 41 135 72 22
20 22 19 63 -10 41 -30 43 -30 79 -15 20 8 49 26 64 40 26 25 26 25 37 5 6
-11 27 -26 48 -33 33 -11 38 -10 54 10 l18 22 37 -27 c35 -27 36 -27 77 -12
73 28 341 148 348 156 9 10 29 107 29 142 0 28 -7 34 -108 84 l-107 54 -25
-20 c-14 -11 -63 -55 -110 -98 -127 -116 -150 -134 -151 -118 0 7 -4 4 -9 -7
-7 -19 -8 -18 -14 5 -3 14 -15 65 -27 113 -19 81 -19 90 -5 112 23 34 19 45
-5 16 -11 -14 -23 -20 -27 -15 -19 22 -62 83 -62 87 0 10 104 -33 111 -45 4
-6 11 -65 15 -130 3 -65 9 -118 13 -118 3 1 51 55 106 122 55 66 124 149 153
184 30 35 50 64 45 64 -5 0 -71 -76 -148 -169 -77 -93 -143 -170 -147 -170 -5
-1 -8 16 -8 37 0 31 14 61 73 150 l72 111 48 1 c26 0 47 4 47 8 0 4 -16 6 -35
4 -42 -5 -43 -1 -10 43 25 32 27 33 56 18 16 -8 35 -13 42 -10 6 2 -5 9 -25
16 -21 7 -38 16 -38 21 0 4 19 32 43 60 70 87 73 99 6 28 -59 -61 -67 -66 -96
-61 -21 3 -33 1 -33 -6 0 -6 16 -11 36 -11 l35 0 -34 -42 c-19 -24 -69 -91
-110 -151 l-76 -107 -7 57 c-6 52 -4 63 20 106 29 52 34 72 11 41 -19 -25 -18
-21 5 51 l19 60 0 -62 c1 -35 5 -63 11 -63 14 0 13 117 -1 122 -8 3 -9 10 -1
23 5 11 17 45 26 75 9 30 37 122 62 204 35 115 43 154 36 170 -14 29 -234 299
-248 303 -5 2 -65 -43 -132 -99z m178 -149 c17 -70 30 -131 30 -135 0 -5 -61
-11 -135 -12 -155 -4 -140 -14 -168 112 l-15 69 31 26 c18 14 67 57 111 95 43
38 77 65 75 60 -2 -5 -41 -82 -87 -172 -46 -90 -82 -168 -80 -174 2 -6 46 74
98 177 l95 188 8 -54 c4 -29 21 -110 37 -180z m97 59 c51 -64 93 -119 93 -122
0 -6 -141 -79 -144 -74 -1 2 -8 30 -15 63 -7 33 -23 112 -37 175 -29 136 -28
131 -7 100 9 -14 59 -78 110 -142z m-359 -261 c6 -80 5 -96 -6 -92 -8 3 -16 5
-18 5 -2 0 -4 57 -3 128 1 146 14 127 27 -41z m448 98 c-3 -9 -13 -41 -22 -73
-9 -31 -38 -127 -64 -212 -27 -85 -60 -191 -73 -235 -22 -72 -26 -80 -47 -77
-30 3 -29 2 -23 34 3 15 9 25 14 22 5 -3 9 24 9 60 0 36 14 134 31 218 17 84
31 165 31 181 1 25 10 33 67 62 75 39 86 41 77 20z m-494 -182 c27 -15 48 -31
48 -34 0 -3 -42 -28 -92 -56 l-93 -49 -18 45 c-10 25 -30 84 -46 131 -16 47
-33 93 -36 103 -5 12 28 -5 91 -47 55 -36 120 -78 146 -93z m-203 -2 c31 -90
45 -141 36 -138 -7 3 -40 11 -73 17 -32 7 -64 15 -70 19 -8 5 -3 37 18 111 17
58 30 114 30 124 0 32 7 17 59 -133z m-77 102 c-5 -10 -19 -58 -32 -106 -21
-80 -25 -88 -44 -83 -12 3 -27 6 -35 6 -8 0 -11 6 -6 17 11 30 117 194 122
189 3 -2 0 -13 -5 -23z m618 16 c0 -6 -13 -84 -29 -173 -16 -89 -32 -186 -36
-216 -11 -94 -24 -133 -43 -125 -56 21 -66 18 -106 -40 -21 -31 -36 -59 -32
-62 3 -3 20 18 37 46 18 28 36 51 40 51 5 0 24 -24 42 -52 l34 -53 -26 -22
c-14 -12 -29 -22 -33 -23 -5 0 -8 30 -8 68 -1 51 -3 63 -11 49 -6 -10 -8 -40
-6 -68 3 -27 4 -49 1 -49 -15 0 -74 36 -79 48 -3 8 -8 153 -12 321 l-6 307
137 3 c101 2 136 -1 136 -10z m-276 -431 c3 -145 9 -337 13 -427 l6 -163 -24
12 c-42 23 -45 33 -63 180 -13 110 -22 152 -38 173 -11 16 -29 72 -40 125 -10
53 -22 100 -25 105 -5 8 -13 68 -16 130 -2 26 6 33 83 77 47 26 88 49 91 49 3
1 9 -117 13 -261z m-413 205 c23 -7 70 -119 63 -150 -6 -24 -7 -24 -28 14 -88
157 -88 156 -69 148 10 -4 25 -9 34 -12z m213 -139 c22 -8 21 -44 -1 -44 -28
0 -47 16 -40 34 7 17 16 19 41 10z m-279 -172 c17 -15 51 -44 78 -65 52 -42
53 -44 32 -70 -13 -18 -17 -17 -79 28 -62 44 -66 49 -66 86 0 21 -4 39 -10 39
-6 0 -8 -16 -5 -36 l4 -36 -34 6 c-19 3 -51 9 -71 12 -24 4 -35 3 -31 -3 4 -6
30 -13 58 -17 29 -4 65 -14 82 -22 54 -28 128 -86 124 -98 -2 -6 16 -53 40
-104 48 -105 50 -111 26 -90 -10 8 -62 41 -115 73 -54 32 -98 63 -98 69 1 6 7
38 15 71 8 33 10 64 6 68 -5 5 -14 -23 -21 -64 l-12 -72 -44 68 c-25 38 -51
76 -59 85 -25 28 -17 40 48 70 78 36 95 37 132 2z m305 -178 c1 -4 -123 -25
-126 -21 -2 2 4 28 14 58 22 62 37 142 23 119 -4 -8 -19 -51 -31 -95 -13 -44
-24 -81 -26 -83 -1 -2 -15 3 -32 10 l-31 13 57 87 c31 48 63 87 70 87 6 1 12
7 12 14 1 8 62 -160 70 -189z m41 75 l29 -37 -26 -17 c-14 -9 -27 -15 -29 -13
-1 2 -16 41 -33 88 l-31 85 30 -35 c17 -19 44 -51 60 -71z m887 -76 c6 -12 5
-42 -2 -83 -13 -70 -14 -70 -81 -55 -18 5 -93 92 -84 98 2 2 40 12 84 22 44
10 74 20 67 23 -7 2 -44 -4 -83 -13 -38 -10 -72 -16 -74 -14 -2 2 -7 32 -10
66 l-7 62 90 -44 c50 -25 95 -53 100 -62z m-196 33 l3 -65 -134 -95 c-74 -53
-136 -94 -139 -92 -7 8 -20 76 -13 76 3 0 24 17 46 38 22 20 78 71 125 112 47
41 87 78 88 83 11 23 21 -1 24 -57z m-1130 -123 c-6 -16 -11 -22 -11 -15 -1 8
-17 50 -36 93 -19 44 -35 83 -35 86 0 4 21 -26 46 -65 40 -63 45 -75 36 -99z
m835 -111 c15 -55 15 -64 2 -77 -13 -14 -20 -2 -59 97 -24 62 -54 134 -67 160
l-23 47 37 25 37 26 29 -108 c15 -59 35 -135 44 -170z m-154 216 c53 -130 84
-204 103 -251 l23 -58 -22 7 c-30 9 -30 8 -71 104 -59 136 -107 232 -113 227
-3 -3 14 -46 36 -95 l42 -90 -28 -56 c-25 -52 -26 -56 -10 -74 16 -18 16 -19
-8 -30 -14 -7 -27 -12 -28 -12 -1 0 -4 73 -5 163 -2 89 -6 165 -9 170 -2 4 -1
16 2 27 6 20 7 20 44 0 21 -10 41 -25 44 -32z m-188 -167 c15 -100 15 -106 -3
-124 -18 -18 -19 -16 -40 90 -36 188 -36 176 -5 195 l28 17 3 -37 c1 -20 9
-84 17 -141z m-269 124 c24 -12 34 -34 80 -171 29 -86 49 -152 44 -148 -9 10
-160 334 -155 334 1 0 15 -7 31 -15z m184 -9 c0 -13 11 -79 25 -146 14 -68 24
-124 23 -124 -2 -1 -22 -11 -45 -22 l-42 -22 -51 153 c-48 147 -56 174 -45
163 3 -3 31 1 63 7 31 7 60 13 65 14 4 1 7 -10 7 -23z m740 -14 c0 -5 16 -27
35 -50 l35 -41 -156 -76 -157 -76 -24 24 -24 23 62 45 c33 24 95 70 137 101
78 57 92 65 92 50z m-1053 -65 c38 -24 93 -57 124 -75 30 -17 61 -43 67 -57
l12 -25 -48 23 c-26 13 -91 45 -144 71 -54 26 -98 51 -98 54 0 13 12 52 16 52
2 0 34 -19 71 -43z m1188 -47 c-3 -5 -12 -10 -18 -10 -11 0 -106 -40 -271
-114 -33 -14 -61 -24 -64 -21 -7 7 -13 4 148 83 87 43 158 71 178 71 20 1 31
-3 27 -9z m-585 -8 c0 -5 -9 -17 -20 -27 -23 -21 -26 -14 -8 15 13 20 28 27
28 12z m14 -38 c3 -9 -3 -29 -15 -45 -20 -29 -22 -29 -40 -13 -19 17 -19 18 8
46 31 32 38 34 47 12z"/>
<path d="M1443 1683 c9 -2 25 -2 35 0 9 3 1 5 -18 5 -19 0 -27 -2 -17 -5z"/>
<path d="M1248 1683 c29 -2 74 -2 100 0 26 2 2 3 -53 3 -55 0 -76 -1 -47 -3z"/>
<path d="M1218 1599 c-10 -5 -18 -15 -18 -20 0 -6 9 -4 21 4 25 18 61 11 57
-12 -2 -9 -14 -18 -28 -19 -14 -2 -31 -9 -37 -14 -35 -28 7 -80 46 -58 11 5
28 7 38 3 16 -6 16 -5 5 10 -8 9 -12 31 -11 50 5 56 -29 82 -73 56z m50 -100
c-20 -14 -52 -6 -56 13 -2 12 6 20 30 26 29 7 33 6 36 -11 2 -11 -2 -24 -10
-28z"/>
<path d="M1029 1689 c-14 -4 8 -7 51 -7 75 0 78 4 9 10 -19 2 -46 1 -60 -3z"/>
<path d="M1086 1618 c-3 -13 -2 -24 2 -25 4 -2 5 -25 4 -51 -3 -35 1 -52 12
-62 9 -7 20 -10 23 -6 4 4 1 11 -6 15 -9 6 -12 26 -11 62 3 73 2 89 -9 89 -5
0 -11 -10 -15 -22z"/>
<path d="M1078 1393 c18 -2 45 -2 60 0 15 2 0 4 -33 4 -33 0 -45 -2 -27 -4z"/>
<path d="M593 1393 c9 -2 23 -2 30 0 6 3 -1 5 -18 5 -16 0 -22 -2 -12 -5z"/>
<path d="M678 1393 c6 -2 18 -2 25 0 6 3 1 5 -13 5 -14 0 -19 -2 -12 -5z"/>
<path d="M1880 1175 c-23 -31 -40 -59 -37 -62 3 -2 24 21 48 52 23 30 39 58
36 61 -3 3 -24 -20 -47 -51z"/>
<path d="M1670 1734 c-36 -7 -70 -16 -76 -18 -13 -5 -78 -126 -71 -132 5 -6
57 83 57 97 0 22 17 5 30 -28 7 -21 15 -33 17 -26 2 6 -3 26 -12 43 -9 18 -15
33 -13 34 11 8 174 33 180 28 4 -4 3 -27 -3 -51 -5 -24 -8 -51 -6 -60 2 -9 9
11 17 44 l13 60 12 -43 c18 -59 25 -76 30 -70 2 2 -5 34 -16 71 l-20 67 -37
-1 c-20 0 -66 -7 -102 -15z"/>
<path d="M404 1691 c-2 -2 -4 -71 -4 -153 l0 -148 33 1 c30 2 30 2 5 6 l-28 4
0 140 0 139 153 2 c83 1 136 3 117 4 -61 6 -272 9 -276 5z"/>
<path d="M1950 1689 l-115 -5 128 -2 127 -2 0 -140 0 -140 -182 -3 -183 -3
190 1 190 0 0 144 c0 135 -1 144 -20 150 -11 3 -72 4 -135 0z"/>
<path d="M843 1683 c9 -2 23 -2 30 0 6 3 -1 5 -18 5 -16 0 -22 -2 -12 -5z"/>
<path d="M1648 1683 c12 -2 32 -2 45 0 12 2 2 4 -23 4 -25 0 -35 -2 -22 -4z"/>
<path d="M2040 1618 c0 -25 -3 -29 -12 -20 -33 33 -88 -4 -88 -59 0 -37 44
-73 71 -58 26 14 24 21 -5 13 -34 -8 -61 32 -46 70 5 15 17 29 26 33 25 9 57
-34 50 -67 -2 -14 -1 -32 5 -40 6 -10 9 15 9 73 0 48 -2 87 -5 87 -3 0 -5 -14
-5 -32z"/>
<path d="M450 1590 c-29 -29 -26 -74 6 -99 15 -12 30 -21 34 -21 16 0 55 39
47 47 -5 4 -13 0 -18 -10 -14 -24 -45 -21 -63 5 -21 30 -20 44 4 68 24 24 34
25 55 4 9 -9 18 -14 21 -11 9 8 -27 37 -47 37 -10 0 -28 -9 -39 -20z"/>
<path d="M623 1545 c0 -52 2 -58 4 -23 3 35 10 52 25 63 12 8 19 18 15 21 -4
4 -13 2 -21 -5 -11 -9 -15 -9 -19 1 -3 7 -5 -18 -4 -57z"/>
<path d="M1778 1598 c-22 -18 -30 -72 -14 -94 12 -16 -2 -34 -150 -188 -90
-93 -161 -172 -158 -175 3 -3 24 14 46 39 102 112 292 300 302 298 19 -3 54
12 60 27 7 19 -1 19 -20 0 -9 -8 -23 -15 -31 -15 -14 0 -13 3 3 23 l19 22 -22
-18 c-23 -20 -43 -16 -43 8 0 9 15 15 48 17 41 3 47 6 44 23 -4 23 -29 45 -52
45 -9 0 -23 -6 -32 -12z m58 -12 c23 -18 19 -22 -28 -29 -42 -6 -54 13 -20 32
23 14 25 13 48 -3z"/>
<path d="M793 1393 c15 -2 37 -2 50 0 12 2 0 4 -28 4 -27 0 -38 -2 -22 -4z"/>
<path d="M1358 1393 c7 -3 16 -2 19 1 4 3 -2 6 -13 5 -11 0 -14 -3 -6 -6z"/>
<path d="M1458 1393 c6 -2 18 -2 25 0 6 3 1 5 -13 5 -14 0 -19 -2 -12 -5z"/>
<path d="M1563 1393 c9 -2 25 -2 35 0 9 3 1 5 -18 5 -19 0 -27 -2 -17 -5z"/>
</g>
</svg>
